<?xml version="1.0" standalone="no"?>
<!DOCTYPE svg PUBLIC "-//W3C//DTD SVG 20010904//EN"
 "http://www.w3.org/TR/2001/REC-SVG-20010904/DTD/svg10.dtd">
<svg version="1.0" xmlns="http://www.w3.org/2000/svg"
 width="700.000000pt" height="700.000000pt" viewBox="0 0 700.000000 700.000000"
 preserveAspectRatio="xMidYMid meet">
<metadata>
Created by potrace 1.11, written by Peter Selinger 2001-2013
</metadata>
<g transform="translate(0.000000,700.000000) scale(0.100000,-0.100000)"
fill="#000000" stroke="none">
<path d="M3782 4748 c-11 -29 -27 -75 -35 -103 -8 -27 -76 -228 -150 -445 -74
-217 -160 -469 -190 -560 -31 -91 -110 -322 -175 -515 -65 -192 -158 -467
-206 -610 -48 -143 -91 -268 -96 -277 -6 -10 -10 -22 -10 -28 0 -6 68 -10 189
-10 170 0 190 2 196 18 9 22 457 1341 534 1572 12 36 24 72 27 80 3 8 6 17 6
20 0 3 5 16 10 30 12 30 298 872 298 877 0 1 -85 3 -189 3 l-190 0 -19 -52z"/>
<path d="M2690 4079 c-184 -71 -344 -133 -355 -138 -11 -5 -87 -35 -170 -67
-172 -65 -215 -82 -490 -188 -110 -42 -238 -92 -285 -111 -47 -18 -175 -68
-285 -110 -110 -42 -209 -80 -220 -85 -53 -23 -153 -60 -163 -60 -40 0 13 -26
211 -104 246 -97 248 -98 297 -119 19 -8 152 -61 295 -117 143 -57 417 -165
609 -242 192 -76 350 -137 351 -136 13 16 114 343 108 348 -4 5 -39 20 -78 35
-38 15 -83 33 -100 40 -30 13 -270 107 -375 148 -30 11 -59 25 -64 29 -6 4
-16 8 -23 8 -7 0 -32 9 -56 19 -23 10 -76 33 -117 49 -69 28 -73 31 -50 40 14
5 124 48 245 95 121 47 333 128 470 182 138 53 291 112 342 132 l92 36 32 95
c17 51 51 151 75 220 23 70 42 127 41 128 -1 1 -153 -56 -337 -127z"/>
<path d="M4515 4199 c-9 -14 -115 -327 -115 -339 0 -5 6 -10 13 -10 7 0 208
-78 447 -174 379 -152 432 -176 410 -184 -14 -5 -142 -55 -285 -110 -585 -226
-859 -332 -862 -335 -8 -9 -149 -437 -145 -442 3 -3 10 -1 16 3 6 4 29 14 51
21 22 7 54 19 70 27 17 7 109 43 205 79 96 37 189 73 205 80 17 7 68 27 115
44 47 18 99 39 117 47 17 8 36 14 42 14 6 0 19 5 29 10 9 6 71 31 137 56 229
87 510 195 530 204 11 5 173 68 360 140 187 72 354 137 372 145 17 8 38 15 47
15 42 0 4 21 -131 74 -82 32 -161 64 -178 71 -16 7 -82 33 -145 58 -215 85
-1205 477 -1252 497 -27 11 -50 15 -53 9z"/>
</g>
</svg>
