<?xml version="1.0" encoding="UTF-8"?>
<svg width="446px" height="666px" viewBox="0 0 446 666" version="1.1" xmlns="http://www.w3.org/2000/svg" xmlns:xlink="http://www.w3.org/1999/xlink">
    <!-- Generator: Sketch 52.6 (67491) - http://www.bohemiancoding.com/sketch -->
    <title>Path</title>
    <desc>Created with Sketch.</desc>
    <g id="Page-1" stroke="none" stroke-width="1" fill="none" fill-rule="evenodd">
        <path d="M213.835323,465.098811 C220.490148,462.138941 224.556986,459.919039 226.035836,458.439104 C227.514686,456.959168 234.169512,454.369282 246.000313,450.669444 C259.309964,450.669444 267.073927,450.669444 269.292202,450.669444 C272.619614,450.669444 278.165302,446.229639 277.056165,439.569931 C275.947027,432.910223 271.510477,414.041051 262.637376,404.051489 C256.721976,397.391781 250.06715,390.732073 242.6729,384.072365 C229.363249,375.932722 221.599286,369.273014 219.381011,364.093242 C217.162736,358.913469 213.835323,352.993728 209.398773,346.33402 C207.180498,344.854085 204.962222,344.854085 202.743947,346.33402 C199.416535,348.553923 187.216021,367.423095 167.251545,367.423095 C153.941894,367.423095 145.808218,362.613306 142.850518,352.993728 C142.111093,347.073988 145.068793,342.634183 151.723619,339.674313 C161.705857,335.234507 190.543434,327.464848 197.198259,314.145432 C203.853085,300.826016 186.106884,298.606114 180.561196,300.826016 C176.864071,302.305951 173.536658,304.895838 170.578958,308.595676 C166.881832,310.815578 163.924132,311.92553 161.705857,311.92553 C158.378444,311.92553 130.650005,311.92553 119.558629,314.145432 C112.164379,315.625367 101.812428,319.325205 88.5027772,325.244945 C82.5873768,326.72488 78.520539,327.464848 76.3022638,327.464848 C72.9748511,327.464848 67.4291633,330.794702 66.3200257,334.124556 C65.2108881,337.45441 43.0281366,344.114118 28.6093482,344.114118 C14.1905597,344.114118 5.31745912,337.45441 1.99004639,334.124556 C-1.33736633,330.794702 -1.33736633,319.695189 8.64487184,314.145432 C18.62711,308.595676 40.8098615,314.145432 47.4646869,314.145432 C51.9012372,314.145432 60.7743378,312.295513 74.0839887,308.595676 C84.4359394,303.415903 91.8301899,300.826016 96.2667402,300.826016 C102.921566,300.826016 128.43173,284.176747 135.086555,278.62699 C141.741381,273.077233 146.177931,275.297136 151.723619,271.967282 C157.269307,268.637428 163.924132,248.658304 167.251545,230.899083 C170.578958,213.139862 173.90637,208.700057 177.233783,205.370203 C180.561196,202.040349 189.434296,198.710495 189.434296,194.27069 C189.434296,189.830885 188.325159,176.511469 189.434296,167.631858 C190.543434,158.752248 212.726185,99.9248279 217.162736,96.5949739 C221.599286,93.26512 208.289635,98.8148765 202.743947,98.8148765 C197.198259,98.8148765 190.543434,101.034779 183.888609,96.5949739 C177.233783,92.1551686 168.360682,79.9457041 163.924132,78.8357528 C159.487582,77.7258015 160.596719,77.7258015 155.051032,78.8357528 C149.505344,79.9457041 149.505344,82.1656068 146.177931,82.1656068 C142.850518,82.1656068 145.068793,73.2859962 148.396206,69.9561423 C151.723619,66.6262883 161.705857,53.3068725 189.434296,53.3068725 C217.162736,53.3068725 209.398773,59.9665804 223.817561,58.8566291 C238.23635,57.7466778 238.23635,56.6367265 242.6729,53.3068725 C245.6306,51.0869699 252.285426,44.427262 262.637376,33.3277488 C265.595076,29.6279111 270.401339,27.7779922 277.056165,27.7779922 C283.71099,27.7779922 288.517253,27.7779922 291.474953,27.7779922 C308.481729,10.0187711 321.421668,0.76917679 330.294768,0.0292092452 C339.167869,-0.7107583 339.167869,12.6086575 330.294768,39.9874567 C313.287992,72.5460287 303.305754,91.4152011 300.348054,96.5949739 C304.784604,101.034779 305.524029,111.024341 302.566329,126.563659 C298.129779,149.872637 289.256678,153.202491 287.038403,152.09254 C284.820128,150.982588 287.038403,142.102978 287.038403,137.663173 C287.038403,134.703302 286.298978,129.153546 284.820128,121.013903 C284.820128,118.794 284.080703,118.794 282.601853,121.013903 C280.383577,124.343757 269.292202,143.212929 269.292202,152.09254 C269.292202,158.01228 267.073927,170.591728 262.637376,189.830885 C270.031627,216.469716 275.947027,234.598921 280.383577,244.218499 C287.038403,258.647866 299.238916,276.407087 302.566329,285.286698 C305.893742,294.166308 324.74908,334.124556 336.949594,389.622122 C339.907294,394.801895 343.234707,399.611684 346.931832,404.051489 C356.544358,415.89097 365.047746,426.990483 372.441996,437.350029 C379.836247,447.709574 392.406472,449.559493 410.152674,442.899785 C425.6806,430.320337 432.335425,416.260953 430.11715,400.721635 C427.898875,385.182317 425.310887,375.192755 422.353187,370.752949 C420.692118,367.793079 421.06183,366.313144 423.462324,366.313144 C427.063066,366.313144 437.881113,380.742511 441.208526,387.402219 C444.535938,394.061927 450.081626,422.920661 441.208526,437.350029 C432.335425,451.779396 406.825261,473.978422 386.860785,477.308276 C377.987684,477.308276 374.660271,502.837156 374.660271,507.276962 C374.660271,511.716767 374.660271,551.675014 366.896308,564.99443 C376.508834,565.734398 383.163659,567.214333 386.860785,569.434235 C390.55791,571.654138 392.03676,576.093943 391.297335,582.753651 C386.12136,610.13245 383.533372,629.74159 383.533372,641.581071 C383.533372,659.340292 363.568896,666 359.132345,666 C354.695795,666 334.731319,664.890049 334.731319,647.130828 C334.731319,629.371607 348.040969,629.371607 352.47752,629.371607 C356.91407,629.371607 369.114583,624.931801 366.896308,612.722337 C364.678033,600.512872 362.459758,593.853164 355.804932,590.52331 C349.150107,587.193456 334.731319,582.753651 330.294768,574.983992 C325.858218,567.214333 320.31253,556.11482 321.421668,549.455112 C311.069717,525.77615 294.802366,511.716767 272.619614,507.276962 C267.443639,506.536994 267.443639,509.12688 272.619614,515.046621 C282.971565,525.406166 290.365816,533.915793 294.802366,540.575501 C299.238916,547.235209 292.214378,550.935047 273.728752,551.675014 C252.285426,554.634884 238.23635,557.594755 231.581524,560.554625 C224.926699,563.514495 213.835323,562.774527 198.307397,558.334722 C196.089122,555.374852 193.131422,553.524933 189.434296,552.784966 C183.888609,551.675014 187.216021,545.015306 191.652572,542.795404 C196.089122,540.575501 207.180498,532.805842 220.490148,532.805842 C233.799799,532.805842 240.454625,537.245647 248.218588,533.915793 C253.394563,531.695891 254.133988,528.73602 250.436863,525.036183 C236.193403,513.196702 228.059727,502.837156 226.035836,493.957546 C223,480.63813 214.944461,468.428665 213.835323,467.318714 C213.095898,466.578747 213.095898,465.838779 213.835323,465.098811 Z" id="Path" fill="#29A870" fill-rule="nonzero"></path>
    </g>
</svg>